<svg width="144" height="45" viewBox="0 0 144 45" fill="none" xmlns="http://www.w3.org/2000/svg">
<path d="M13.12 11.12C12.36 10.84 11.4 10.64 10.2 10.64C5.8 10.64 3.2 13.36 3.2 17.68V19H0.52V23.88H3.2V37H9.4V23.88H12.88V19H9.4V18.04C9.4 16.6 10.24 15.88 11.64 15.88C12.2 15.88 12.68 16 13.12 16.24V11.12ZM32.4794 28C32.4794 22.44 28.7594 18.6 23.2794 18.6C17.8394 18.6 14.0794 22.44 14.0794 28C14.0794 33.56 17.8394 37.4 23.2794 37.4C28.7594 37.4 32.4794 33.56 32.4794 28ZM26.3194 28C26.3194 30.48 25.2394 32.2 23.2794 32.2C21.3594 32.2 20.2794 30.48 20.2794 28C20.2794 25.52 21.3594 23.76 23.2794 23.76C25.2394 23.76 26.3194 25.52 26.3194 28ZM47.0022 18.92C46.7222 18.76 46.0822 18.6 45.2822 18.6C43.4822 18.6 42.0822 19.4 41.2022 20.6V19H34.9222V37H41.2022V26.44C41.5222 25.16 42.6822 24.4 44.4022 24.4C45.4022 24.4 46.2422 24.56 47.0022 24.96V18.92ZM48.3372 28C48.3372 33.56 52.0172 37.4 57.4172 37.4C62.2572 37.4 65.2572 34.48 65.7772 30.32H59.6972C59.5372 31.4 58.6972 32.16 57.4172 32.16C55.6572 32.16 54.5372 30.56 54.5372 28C54.5372 25.44 55.6572 23.8 57.4172 23.8C58.6972 23.8 59.5372 24.6 59.6972 25.68H65.7772C65.2572 21.48 62.2572 18.6 57.4172 18.6C52.0172 18.6 48.3372 22.44 48.3372 28ZM84.1653 37V25.96C84.1653 21.28 81.2453 18.56 76.1253 18.56C71.4853 18.56 68.4053 21.32 67.8853 24.8H73.8053C74.0853 24 74.7653 23.48 75.9253 23.48C77.4453 23.48 78.1253 24.48 78.1253 25.64V26.8C77.4053 26.28 75.6453 25.8 74.1653 25.8C70.2453 25.8 67.2453 28.04 67.2453 31.52C67.2453 35.32 70.2453 37.32 73.8053 37.32C75.7253 37.32 77.5253 36.68 78.1253 36.08V37H84.1653ZM78.1253 31.96C77.7253 32.68 76.6453 33.16 75.4853 33.16C74.2453 33.16 73.0053 32.64 73.0053 31.4C73.0053 30.2 74.2453 29.68 75.4853 29.68C76.6453 29.68 77.7253 30.16 78.1253 30.92V31.96ZM99.3069 18.92C99.0269 18.76 98.3869 18.6 97.5869 18.6C95.7869 18.6 94.3869 19.4 93.5069 20.6V19H87.2269V37H93.5069V26.44C93.8269 25.16 94.9869 24.4 96.7069 24.4C97.7069 24.4 98.5469 24.56 99.3069 24.96V18.92ZM113.122 37H119.402V11H113.122V20.44C112.282 19.48 110.522 18.6 108.682 18.6C103.482 18.6 100.642 22.8 100.642 28C100.642 33.2 103.482 37.4 108.682 37.4C110.522 37.4 112.282 36.52 113.122 35.56V37ZM113.122 30.36C112.642 31.36 111.602 32.04 110.362 32.04C108.202 32.04 106.922 30.32 106.922 28C106.922 25.68 108.202 23.92 110.362 23.92C111.562 23.92 112.642 24.64 113.122 25.6V30.36Z" fill="black"/>
<g filter="url(#filter0_d_114_1914)">
<circle cx="129" cy="32" r="5" fill="#111111"/>
</g>
<defs>
<filter id="filter0_d_114_1914" x="123.5" y="27" width="10.5" height="10.35" filterUnits="userSpaceOnUse" color-interpolation-filters="sRGB">
<feFlood flood-opacity="0" result="BackgroundImageFix"/>
<feColorMatrix in="SourceAlpha" type="matrix" values="0 0 0 0 0 0 0 0 0 0 0 0 0 0 0 0 0 0 127 0" result="hardAlpha"/>
<feOffset dx="-0.5" dy="0.35"/>
<feComposite in2="hardAlpha" operator="out"/>
<feColorMatrix type="matrix" values="0 0 0 0 1 0 0 0 0 0.772549 0 0 0 0 0.196078 0 0 0 1 0"/>
<feBlend mode="normal" in2="BackgroundImageFix" result="effect1_dropShadow_114_1914"/>
<feBlend mode="normal" in="SourceGraphic" in2="effect1_dropShadow_114_1914" result="shape"/>
</filter>
</defs>
</svg>
