<svg width="135" height="61" viewBox="0 0 135 61" fill="none" xmlns="http://www.w3.org/2000/svg">
<path d="M13.62 10.62C12.86 10.34 11.9 10.14 10.7 10.14C6.3 10.14 3.7 12.86 3.7 17.18V18.5H1.02V23.38H3.7V36.5H9.9V23.38H13.38V18.5H9.9V17.54C9.9 16.1 10.74 15.38 12.14 15.38C12.7 15.38 13.18 15.5 13.62 15.74V10.62ZM32.9794 27.5C32.9794 21.94 29.2594 18.1 23.7794 18.1C18.3394 18.1 14.5794 21.94 14.5794 27.5C14.5794 33.06 18.3394 36.9 23.7794 36.9C29.2594 36.9 32.9794 33.06 32.9794 27.5ZM26.8194 27.5C26.8194 29.98 25.7394 31.7 23.7794 31.7C21.8594 31.7 20.7794 29.98 20.7794 27.5C20.7794 25.02 21.8594 23.26 23.7794 23.26C25.7394 23.26 26.8194 25.02 26.8194 27.5ZM47.5022 18.42C47.2222 18.26 46.5822 18.1 45.7822 18.1C43.9822 18.1 42.5822 18.9 41.7022 20.1V18.5H35.4222V36.5H41.7022V25.94C42.0222 24.66 43.1822 23.9 44.9022 23.9C45.9022 23.9 46.7422 24.06 47.5022 24.46V18.42ZM48.8372 27.5C48.8372 33.06 52.5172 36.9 57.9172 36.9C62.7572 36.9 65.7572 33.98 66.2772 29.82H60.1972C60.0372 30.9 59.1972 31.66 57.9172 31.66C56.1572 31.66 55.0372 30.06 55.0372 27.5C55.0372 24.94 56.1572 23.3 57.9172 23.3C59.1972 23.3 60.0372 24.1 60.1972 25.18H66.2772C65.7572 20.98 62.7572 18.1 57.9172 18.1C52.5172 18.1 48.8372 21.94 48.8372 27.5ZM84.6653 36.5V25.46C84.6653 20.78 81.7453 18.06 76.6253 18.06C71.9853 18.06 68.9053 20.82 68.3853 24.3H74.3053C74.5853 23.5 75.2653 22.98 76.4253 22.98C77.9453 22.98 78.6253 23.98 78.6253 25.14V26.3C77.9053 25.78 76.1453 25.3 74.6653 25.3C70.7453 25.3 67.7453 27.54 67.7453 31.02C67.7453 34.82 70.7453 36.82 74.3053 36.82C76.2253 36.82 78.0253 36.18 78.6253 35.58V36.5H84.6653ZM78.6253 31.46C78.2253 32.18 77.1453 32.66 75.9853 32.66C74.7453 32.66 73.5053 32.14 73.5053 30.9C73.5053 29.7 74.7453 29.18 75.9853 29.18C77.1453 29.18 78.2253 29.66 78.6253 30.42V31.46ZM99.8069 18.42C99.5269 18.26 98.8869 18.1 98.0869 18.1C96.2869 18.1 94.8869 18.9 94.0069 20.1V18.5H87.7269V36.5H94.0069V25.94C94.3269 24.66 95.4869 23.9 97.2069 23.9C98.2069 23.9 99.0469 24.06 99.8069 24.46V18.42ZM113.622 36.5H119.902V10.5H113.622V19.94C112.782 18.98 111.022 18.1 109.182 18.1C103.982 18.1 101.142 22.3 101.142 27.5C101.142 32.7 103.982 36.9 109.182 36.9C111.022 36.9 112.782 36.02 113.622 35.06V36.5ZM113.622 29.86C113.142 30.86 112.102 31.54 110.862 31.54C108.702 31.54 107.422 29.82 107.422 27.5C107.422 25.18 108.702 23.42 110.862 23.42C112.062 23.42 113.142 24.14 113.622 25.1V29.86Z" fill="white"/>
<g filter="url(#filter0_d_126_1933)">
<circle cx="129.5" cy="32.5" r="5" fill="#17181A"/>
</g>
<defs>
<filter id="filter0_d_126_1933" x="124" y="27.5" width="10.5" height="10.35" filterUnits="userSpaceOnUse" color-interpolation-filters="sRGB">
<feFlood flood-opacity="0" result="BackgroundImageFix"/>
<feColorMatrix in="SourceAlpha" type="matrix" values="0 0 0 0 0 0 0 0 0 0 0 0 0 0 0 0 0 0 127 0" result="hardAlpha"/>
<feOffset dx="-0.5" dy="0.35"/>
<feComposite in2="hardAlpha" operator="out"/>
<feColorMatrix type="matrix" values="0 0 0 0 1 0 0 0 0 0.772549 0 0 0 0 0.196078 0 0 0 1 0"/>
<feBlend mode="normal" in2="BackgroundImageFix" result="effect1_dropShadow_126_1933"/>
<feBlend mode="normal" in="SourceGraphic" in2="effect1_dropShadow_126_1933" result="shape"/>
</filter>
</defs>
</svg>
